<svg width="31" height="31" viewBox="0 0 31 31" fill="none" xmlns="http://www.w3.org/2000/svg">
<path fill-rule="evenodd" clip-rule="evenodd" d="M6.12497 15.5C6.12497 10.3223 10.3223 6.125 15.5 6.125C20.6776 6.125 24.875 10.3223 24.875 15.5C24.875 20.6777 20.6776 24.875 15.5 24.875C14.1023 24.875 12.7785 24.5698 11.5894 24.0232C11.1189 23.8069 10.5622 24.013 10.346 24.4835C10.1297 24.9539 10.3358 25.5106 10.8063 25.7268C12.236 26.384 13.8265 26.75 15.5 26.75C21.7132 26.75 26.75 21.7132 26.75 15.5C26.75 9.2868 21.7132 4.25 15.5 4.25C9.28677 4.25 4.24997 9.2868 4.24997 15.5H6.12497Z" fill="#0875F5"/>
<path d="M8.87417 15.5L1.50077 15.5C1.10335 15.5 0.886245 15.9635 1.14067 16.2688L4.82737 20.6929C5.01477 20.9178 5.36017 20.9178 5.54758 20.6929L9.23428 16.2688C9.4887 15.9635 9.2716 15.5 8.87417 15.5Z" fill="#0875F5"/>
</svg>
