<svg width="14" height="14" viewBox="0 0 14 14" fill="none" xmlns="http://www.w3.org/2000/svg">
<path d="M0 1.16667C0 0.521354 0.446875 0 1 0H13C13.5531 0 14 0.521354 14 1.16667C14 1.81198 13.5531 2.33333 13 2.33333H1C0.446875 2.33333 0 1.81198 0 1.16667ZM0 7C0 6.35469 0.446875 5.83333 1 5.83333H13C13.5531 5.83333 14 6.35469 14 7C14 7.64531 13.5531 8.16667 13 8.16667H1C0.446875 8.16667 0 7.64531 0 7ZM14 12.8333C14 13.4786 13.5531 14 13 14H1C0.446875 14 0 13.4786 0 12.8333C0 12.188 0.446875 11.6667 1 11.6667H13C13.5531 11.6667 14 12.188 14 12.8333Z" fill="black" fill-opacity="0.54"/>
</svg>
