<svg width="50" height="50" viewBox="0 0 50 50" fill="none" xmlns="http://www.w3.org/2000/svg">
<path d="M7.14286 0C3.20313 0 0 3.20313 0 7.14286V42.8571C0 46.7969 3.20313 50 7.14286 50H42.8571C46.7969 50 50 46.7969 50 42.8571V7.14286C50 3.20313 46.7969 0 42.8571 0H7.14286ZM21.4286 25H26.7857C28.7612 25 30.3571 23.404 30.3571 21.4286C30.3571 19.4531 28.7612 17.8571 26.7857 17.8571H21.4286V25ZM26.7857 32.1429H21.4286V35.7143C21.4286 37.6897 19.8326 39.2857 17.8571 39.2857C15.8817 39.2857 14.2857 37.6897 14.2857 35.7143V28.5714V15.1786C14.2857 12.7121 16.2835 10.7143 18.75 10.7143H26.7857C32.7009 10.7143 37.5 15.5134 37.5 21.4286C37.5 27.3438 32.7009 32.1429 26.7857 32.1429Z" fill="#3BA1FF"/>
</svg>
