<svg width="35" height="30" viewBox="0 0 35 30" fill="none" xmlns="http://www.w3.org/2000/svg">
<path d="M34.3681 2.12111C34.763 2.38478 35 2.81837 35 3.28126V22.9688C35 23.5547 34.6233 24.0762 34.0582 24.2813L23.8498 28.0313C23.5339 28.1484 23.1875 28.1543 22.8715 28.0488L11.697 24.4629L1.97483 28.0371C1.52517 28.2012 1.02083 28.1426 0.625868 27.8789C0.230903 27.6152 0 27.1817 0 26.7188V7.03126C0 6.44532 0.37066 5.92384 0.94184 5.71876L11.1502 1.96876C11.4661 1.85157 11.8125 1.84572 12.1285 1.95118L23.303 5.53712L33.0252 1.9629C33.4748 1.79884 33.9792 1.85743 34.3741 2.12111H34.3681ZM2.91667 7.99806V24.6738L10.2083 21.9961V5.32032L2.91667 7.99806ZM21.875 24.7676V8.04493L13.125 5.23243V21.9551L21.875 24.7676ZM24.7917 24.6797L32.0833 22.002V5.32618L24.7917 7.99806V24.6738V24.6797Z" fill="#595959"/>
</svg>
