<svg width="20" height="20" viewBox="0 0 20 20" fill="none" xmlns="http://www.w3.org/2000/svg">
<path d="M12.2855 0.902283C12.4513 0.902283 12.6102 0.968131 12.7275 1.08534L18.9146 7.27252C19.1587 7.5166 19.1587 7.91233 18.9146 8.15641C18.3141 8.7569 17.5747 8.89189 17.0364 8.89189C16.8147 8.89189 16.617 8.86938 16.4605 8.84282L12.5435 12.7597C12.5522 12.7946 12.561 12.8315 12.57 12.8703C12.6373 13.1622 12.713 13.5693 12.7434 14.0258C12.8019 14.904 12.7038 16.135 11.8436 16.9952C11.5995 17.2393 11.2038 17.2393 10.9597 16.9952L7.42416 13.4597L3.44668 17.4372C3.2026 17.6813 1.92299 18.5651 1.67891 18.3211C1.43484 18.077 2.31872 16.7974 2.5628 16.5533L6.54027 12.5758L3.00474 9.04029C2.76066 8.79621 2.76066 8.40049 3.00474 8.15641C3.86495 7.2962 5.09603 7.19804 5.97418 7.25658C6.43066 7.28701 6.83776 7.36266 7.12966 7.43002C7.16847 7.43898 7.20539 7.44782 7.24025 7.45643L11.1572 3.53951C11.1306 3.38297 11.1081 3.18533 11.1081 2.96359C11.1081 2.42531 11.2431 1.68583 11.8436 1.08534C11.9608 0.968131 12.1198 0.902283 12.2855 0.902283Z" fill="black" fill-opacity="0.54"/>
</svg>
